<svg width="134" height="88" viewBox="0 0 134 88" fill="none" xmlns="http://www.w3.org/2000/svg">
<path d="M12.55 9.05C12.55 8.68333 12.5167 8.31666 12.45 7.95C12.4167 7.55 12.3167 7.2 12.15 6.9C12.0167 6.56666 11.8 6.3 11.5 6.1C11.2333 5.9 10.85 5.8 10.35 5.8C9.71667 5.8 9.18333 6 8.75 6.4C8.55 5.86667 8.45 5.38333 8.45 4.95C8.45 4.41667 8.53333 3.9 8.7 3.4C8.9 2.86667 9.2 2.4 9.6 2C10 1.6 10.5 1.28333 11.1 1.05C11.7333 0.783331 12.5 0.649997 13.4 0.649997C15.4 0.649997 16.95 1.25 18.05 2.45C19.15 3.65 19.7 5.3 19.7 7.4V37C18.8 37 17.9167 36.9333 17.05 36.8C16.2167 36.6667 15.45 36.4 14.75 36C14.0833 35.5667 13.55 34.9333 13.15 34.1C12.75 33.2667 12.55 32.15 12.55 30.75V9.05ZM7.7 37H7.2C6.33333 37 5.5 36.9167 4.7 36.75C3.9 36.5833 3.18333 36.2833 2.55 35.85C1.95 35.4167 1.45 34.8167 1.05 34.05C0.683333 33.2833 0.5 32.2833 0.5 31.05V0.699999H1.3C2.1 0.699999 2.88333 0.799999 3.65 0.999999C4.41667 1.16667 5.1 1.48333 5.7 1.95C6.3 2.38333 6.78333 2.98333 7.15 3.75C7.51667 4.51667 7.7 5.5 7.7 6.7V37ZM24.55 9.05C24.55 8.68333 24.5167 8.31666 24.45 7.95C24.4167 7.55 24.3167 7.2 24.15 6.9C24.0167 6.56666 23.8 6.3 23.5 6.1C23.2333 5.9 22.85 5.8 22.35 5.8C21.7167 5.8 21.1833 6 20.75 6.4C20.55 5.86667 20.45 5.38333 20.45 4.95C20.45 4.41667 20.5333 3.9 20.7 3.4C20.9 2.86667 21.2 2.4 21.6 2C22 1.6 22.5 1.28333 23.1 1.05C23.7333 0.783331 24.5 0.649997 25.4 0.649997C27.4 0.649997 28.95 1.25 30.05 2.45C31.15 3.65 31.7 5.3 31.7 7.4V37C30.8 37 29.9167 36.9333 29.05 36.8C28.2167 36.6667 27.45 36.4 26.75 36C26.0833 35.5667 25.55 34.9333 25.15 34.1C24.75 33.2667 24.55 32.15 24.55 30.75V9.05ZM43.8316 28.55C43.8316 28.9167 43.8483 29.3 43.8816 29.7C43.9483 30.0667 44.0483 30.4167 44.1816 30.75C44.3483 31.05 44.565 31.3 44.8316 31.5C45.1316 31.7 45.5316 31.8 46.0316 31.8C46.6316 31.8 47.165 31.6 47.6316 31.2C47.7316 31.4667 47.7983 31.7167 47.8316 31.95C47.8983 32.15 47.9316 32.3833 47.9316 32.65C47.9316 33.1833 47.8316 33.7167 47.6316 34.25C47.465 34.75 47.1816 35.2 46.7816 35.6C46.3816 36 45.865 36.3333 45.2316 36.6C44.6316 36.8333 43.8816 36.95 42.9816 36.95C40.9816 36.95 39.4316 36.35 38.3316 35.15C37.2316 33.95 36.6816 32.3 36.6816 30.2V0.599998C37.5816 0.599998 38.4483 0.666665 39.2816 0.799998C40.1483 0.933332 40.915 1.21667 41.5816 1.65C42.2816 2.05 42.8316 2.66666 43.2316 3.5C43.6316 4.33333 43.8316 5.45 43.8316 6.85V28.55ZM55.9316 37H55.4316C54.565 37 53.7316 36.9167 52.9316 36.75C52.1316 36.5833 51.415 36.2833 50.7816 35.85C50.1816 35.4167 49.6816 34.8167 49.2816 34.05C48.915 33.2833 48.7316 32.2833 48.7316 31.05V0.699999H49.5316C50.3316 0.699999 51.115 0.799999 51.8816 0.999999C52.6483 1.16667 53.3316 1.48333 53.9316 1.95C54.5316 2.38333 55.015 2.98333 55.3816 3.75C55.7483 4.51667 55.9316 5.5 55.9316 6.7V37ZM68.2492 21H67.6492C66.8826 21 66.1159 20.9167 65.3492 20.75C64.5826 20.5833 63.8659 20.2833 63.1992 19.85C62.5659 19.3833 62.0492 18.7667 61.6492 18C61.2492 17.2 61.0492 16.2 61.0492 15V6.7C61.0492 5.5 61.2492 4.51667 61.6492 3.75C62.0492 2.95 62.5659 2.33333 63.1992 1.9C63.8659 1.43333 64.5826 1.11667 65.3492 0.949999C66.1159 0.783333 66.8826 0.699999 67.6492 0.699999H68.2492V21ZM60.6992 32.2C60.6992 31.1667 60.8992 30.3333 61.2992 29.7C61.6992 29.0333 62.1826 28.5167 62.7492 28.15C63.3159 27.7833 63.9159 27.55 64.5492 27.45C65.1826 27.3167 65.7326 27.25 66.1992 27.25C66.5992 27.25 66.9326 27.2833 67.1992 27.35V29.85C67.1992 31.0833 67.6826 31.7 68.6492 31.7C68.9492 31.7 69.1992 31.65 69.3992 31.55C69.5992 31.45 69.8159 31.3 70.0492 31.1C70.1492 31.3667 70.1992 31.7 70.1992 32.1C70.2326 32.5 70.2492 32.8167 70.2492 33.05C70.2492 33.45 70.1826 33.8833 70.0492 34.35C69.9159 34.8167 69.6826 35.25 69.3492 35.65C69.0492 36.0167 68.6159 36.3333 68.0492 36.6C67.4826 36.8667 66.7659 37 65.8992 37C64.9992 37 64.2159 36.85 63.5492 36.55C62.9159 36.25 62.3826 35.8833 61.9492 35.45C61.5492 34.9833 61.2326 34.4667 60.9992 33.9C60.7992 33.3333 60.6992 32.7667 60.6992 32.2ZM71.0492 16.75H71.6492C72.3826 16.75 73.1326 16.8333 73.8992 17C74.6992 17.1667 75.4159 17.4833 76.0492 17.95C76.7159 18.3833 77.2492 19 77.6492 19.8C78.0492 20.5667 78.2492 21.55 78.2492 22.75V31.05C78.2492 32.25 78.0492 33.25 77.6492 34.05C77.2492 34.8167 76.7159 35.4333 76.0492 35.9C75.4159 36.3333 74.6992 36.6333 73.8992 36.8C73.1326 36.9667 72.3826 37.05 71.6492 37.05H71.0492V16.75ZM78.4992 5.5C78.4992 6.56666 78.2992 7.41666 77.8992 8.05C77.4992 8.68333 77.0159 9.18333 76.4492 9.55C75.8826 9.91666 75.2826 10.1667 74.6492 10.3C74.0159 10.4 73.4659 10.45 72.9992 10.45C72.5992 10.45 72.2659 10.4167 71.9992 10.35V7.85C71.9992 6.61667 71.5159 6 70.5492 6C70.2492 6 69.9992 6.05 69.7992 6.15C69.5992 6.25 69.3826 6.4 69.1492 6.6C69.0492 6.33333 68.9826 6 68.9492 5.6C68.9492 5.2 68.9492 4.88333 68.9492 4.65C68.9492 4.25 69.0159 3.81666 69.1492 3.35C69.2826 2.88333 69.4992 2.46667 69.7992 2.1C70.1326 1.7 70.5826 1.36666 71.1492 1.1C71.7159 0.833332 72.4326 0.699999 73.2992 0.699999C74.1992 0.699999 74.9659 0.85 75.5992 1.15C76.2659 1.45 76.7992 1.83333 77.1992 2.3C77.6326 2.73333 77.9492 3.25 78.1492 3.85C78.3826 4.41666 78.4992 4.96666 78.4992 5.5ZM90.4637 37H89.9637C89.097 37 88.2637 36.9167 87.4637 36.75C86.6637 36.5833 85.947 36.2833 85.3137 35.85C84.7137 35.4167 84.2137 34.8167 83.8137 34.05C83.447 33.2833 83.2637 32.2833 83.2637 31.05V0.699999H84.0637C84.8637 0.699999 85.647 0.799999 86.4137 0.999999C87.1803 1.16667 87.8637 1.48333 88.4637 1.95C89.0637 2.38333 89.547 2.98333 89.9137 3.75C90.2803 4.51667 90.4637 5.5 90.4637 6.7V37ZM102.671 37H102.171C101.304 37 100.471 36.9167 99.6707 36.75C98.8707 36.5833 98.154 36.2833 97.5207 35.85C96.9207 35.4167 96.4207 34.8167 96.0207 34.05C95.654 33.2833 95.4707 32.2833 95.4707 31.05V6.7C95.4707 5.5 95.654 4.51667 96.0207 3.75C96.3874 2.98333 96.8707 2.38333 97.4707 1.95C98.0707 1.48333 98.754 1.16667 99.5207 0.999999C100.287 0.799999 101.071 0.699999 101.871 0.699999H102.671V37ZM113.621 32.2C113.621 32.7667 113.521 33.3333 113.321 33.9C113.121 34.4667 112.804 34.9833 112.371 35.45C111.937 35.8833 111.404 36.25 110.771 36.55C110.137 36.85 109.387 37 108.521 37C107.121 37 105.937 36.6167 104.971 35.85C104.037 35.05 103.571 33.95 103.571 32.55C103.571 32.2833 103.571 32.05 103.571 31.85C103.604 31.6167 103.671 31.3667 103.771 31.1C104.204 31.5 104.737 31.7 105.371 31.7C105.871 31.7 106.287 31.55 106.621 31.25C106.954 30.9167 107.121 30.4333 107.121 29.8V27.35C107.387 27.2833 107.721 27.25 108.121 27.25C108.587 27.25 109.137 27.3167 109.771 27.45C110.404 27.55 111.004 27.7833 111.571 28.15C112.137 28.5167 112.621 29.0333 113.021 29.7C113.421 30.3333 113.621 31.1667 113.621 32.2ZM113.621 5.45C113.621 6.51666 113.421 7.36666 113.021 8C112.621 8.63333 112.137 9.13333 111.571 9.5C111.004 9.86667 110.404 10.1167 109.771 10.25C109.137 10.35 108.587 10.4 108.121 10.4C107.721 10.4 107.387 10.3667 107.121 10.3V8C107.121 7.4 106.971 6.91666 106.671 6.55C106.371 6.15 105.937 5.95 105.371 5.95C104.737 5.95 104.204 6.15 103.771 6.55C103.671 6.28333 103.604 6.05 103.571 5.85C103.571 5.61666 103.571 5.36666 103.571 5.1C103.571 4.7 103.637 4.25 103.771 3.75C103.937 3.21666 104.204 2.73333 104.571 2.3C104.937 1.83333 105.421 1.45 106.021 1.15C106.654 0.816665 107.454 0.649997 108.421 0.649997C109.121 0.649997 109.787 0.766664 110.421 0.999999C111.054 1.23333 111.604 1.56666 112.071 2C112.537 2.43333 112.904 2.95 113.171 3.55C113.471 4.11667 113.621 4.75 113.621 5.45ZM7.7 81C7.7 82.1667 7.46667 83.1333 7 83.9C6.53333 84.6667 5.95 85.2833 5.25 85.75C4.55 86.1833 3.76667 86.5 2.9 86.7C2.06667 86.9 1.26667 87 0.5 87V57.55C0.5 55.35 1 53.65 2 52.45C3 51.25 4.45 50.65 6.35 50.65C7.28333 50.65 8.08333 50.8167 8.75 51.15C9.41667 51.45 9.95 51.85 10.35 52.35C10.75 52.85 11.0333 53.4333 11.2 54.1C11.4 54.7333 11.5 55.4 11.5 56.1V56.6C11.2667 56.4 11 56.2667 10.7 56.2C10.4333 56.1 10.1667 56.05 9.9 56.05C9.4 56.05 9 56.15 8.7 56.35C8.43333 56.5167 8.21667 56.75 8.05 57.05C7.91667 57.3167 7.81667 57.6333 7.75 58C7.71667 58.3667 7.7 58.75 7.7 59.15V81ZM12.1 50.75C12.2667 50.75 12.4 50.75 12.5 50.75C12.6333 50.7167 12.7833 50.7 12.95 50.7C14.9833 50.7 16.55 51.25 17.65 52.35C18.75 53.45 19.3 55.2167 19.3 57.65V66.6C19.3 67.7 19.1333 68.6667 18.8 69.5C18.5 70.3333 18.0833 71.05 17.55 71.65C17.05 72.2167 16.4333 72.65 15.7 72.95C15 73.25 14.25 73.4 13.45 73.4C12.4167 73.4 11.5667 73.2333 10.9 72.9C10.2333 72.5667 9.7 72.1333 9.3 71.6C8.93333 71.0333 8.66667 70.4 8.5 69.7C8.36667 69 8.3 68.3 8.3 67.6C8.76667 67.8667 9.3 68 9.9 68C10.4 68 10.7833 67.9167 11.05 67.75C11.35 67.55 11.5667 67.3167 11.7 67.05C11.8667 66.75 11.9667 66.4167 12 66.05C12.0667 65.6833 12.1 65.3 12.1 64.9V50.75ZM30.0145 87H29.5145C28.6478 87 27.8145 86.9167 27.0145 86.75C26.2145 86.5833 25.4978 86.2833 24.8645 85.85C24.2645 85.4167 23.7645 84.8167 23.3645 84.05C22.9978 83.2833 22.8145 82.2833 22.8145 81.05V50.7H23.6145C24.4145 50.7 25.1978 50.8 25.9645 51C26.7311 51.1667 27.4145 51.4833 28.0145 51.95C28.6145 52.3833 29.0978 52.9833 29.4645 53.75C29.8311 54.5167 30.0145 55.5 30.0145 56.7V87ZM40.9645 82.2C40.9645 82.7667 40.8478 83.3333 40.6145 83.9C40.4145 84.4667 40.0978 84.9833 39.6645 85.45C39.2645 85.8833 38.7311 86.25 38.0645 86.55C37.4311 86.85 36.6978 87 35.8645 87H35.6645C34.7645 87 34.0145 86.85 33.4145 86.55C32.8145 86.2167 32.3145 85.8333 31.9145 85.4C31.5478 84.9333 31.2811 84.45 31.1145 83.95C30.9811 83.4167 30.9145 82.95 30.9145 82.55C30.9145 82.2833 30.9145 82.05 30.9145 81.85C30.9478 81.6167 31.0145 81.3667 31.1145 81.1C31.5478 81.5 32.0811 81.7 32.7145 81.7C33.2145 81.7 33.6311 81.55 33.9645 81.25C34.2978 80.9167 34.4645 80.4333 34.4645 79.8V77.35C34.5311 77.3167 34.7478 77.3 35.1145 77.3C35.5145 77.2667 35.8311 77.25 36.0645 77.25C36.4311 77.25 36.8978 77.3167 37.4645 77.45C38.0311 77.55 38.5645 77.7833 39.0645 78.15C39.5978 78.5167 40.0478 79.0333 40.4145 79.7C40.7811 80.3333 40.9645 81.1667 40.9645 82.2ZM51.1453 87C50.2786 87 49.4453 86.9167 48.6453 86.75C47.8453 86.5833 47.1286 86.2833 46.4953 85.85C45.8953 85.4167 45.3953 84.8167 44.9953 84.05C44.6286 83.2833 44.4453 82.2833 44.4453 81.05V56.7C44.4453 55.5667 44.6786 54.6167 45.1453 53.85C45.612 53.05 46.1953 52.4333 46.8953 52C47.5953 51.5333 48.362 51.2 49.1953 51C50.062 50.8 50.8786 50.7 51.6453 50.7V87H51.1453ZM52.1453 66.2H56.1953C56.1953 67.5667 55.9453 68.7167 55.4453 69.65C54.9453 70.55 53.9286 71 52.3953 71H52.1453V66.2ZM56.5453 59.05C56.5453 58.6833 56.512 58.3167 56.4453 57.95C56.412 57.55 56.312 57.2 56.1453 56.9C56.012 56.5667 55.7953 56.3 55.4953 56.1C55.2286 55.9 54.8453 55.8 54.3453 55.8C53.712 55.8 53.1786 56 52.7453 56.4C52.5453 55.8667 52.4453 55.3833 52.4453 54.95C52.4453 54.4167 52.5286 53.9 52.6953 53.4C52.8953 52.8667 53.1953 52.4 53.5953 52C53.9953 51.6 54.4953 51.2833 55.0953 51.05C55.7286 50.7833 56.4953 50.65 57.3953 50.65C58.3953 50.65 59.2786 50.8333 60.0453 51.2C60.8453 51.5333 61.512 52.0167 62.0453 52.65C62.5786 53.25 62.9786 53.9667 63.2453 54.8C63.5453 55.6 63.6953 56.4667 63.6953 57.4V87C62.7953 87 61.912 86.9333 61.0453 86.8C60.212 86.6667 59.4453 86.4 58.7453 86C58.0786 85.5667 57.5453 84.9333 57.1453 84.1C56.7453 83.2667 56.5453 82.15 56.5453 80.75V59.05ZM80.5629 50.7H81.3629C82.1629 50.7 82.9462 50.8 83.7129 51C84.4796 51.1667 85.1629 51.4833 85.7629 51.95C86.3629 52.3833 86.8462 52.9833 87.2129 53.75C87.5796 54.5167 87.7629 55.5 87.7629 56.7V73.5C87.7629 74.6667 87.5962 75.6667 87.2629 76.5C86.9296 77.3 86.4796 77.9667 85.9129 78.5C85.3796 79.0333 84.7462 79.4333 84.0129 79.7C83.3129 79.9333 82.5629 80.05 81.7629 80.05C81.5629 80.05 81.3629 80.05 81.1629 80.05C80.9629 80.0167 80.7629 79.9833 80.5629 79.95V50.7ZM74.2129 73C73.4462 73 72.7129 72.8667 72.0129 72.6C71.3462 72.3 70.7462 71.8833 70.2129 71.35C69.6796 70.7833 69.2462 70.1 68.9129 69.3C68.6129 68.4667 68.4629 67.5 68.4629 66.4V50.7H69.5129C71.5462 50.7 73.0796 51.25 74.1129 52.35C75.1462 53.4167 75.6629 55.1667 75.6629 57.6V64.7C75.6629 65.1 75.6796 65.4833 75.7129 65.85C75.7796 66.2167 75.8796 66.55 76.0129 66.85C76.1796 67.1167 76.3962 67.35 76.6629 67.55C76.9629 67.7167 77.3629 67.8 77.8629 67.8C78.1296 67.8 78.3962 67.7667 78.6629 67.7C78.9629 67.6 79.2296 67.45 79.4629 67.25C79.4629 68.0167 79.3629 68.75 79.1629 69.45C78.9629 70.1167 78.6462 70.7167 78.2129 71.25C77.7796 71.7833 77.2296 72.2167 76.5629 72.55C75.8962 72.85 75.1129 73 74.2129 73ZM72.2129 82.25C72.2129 81.2167 72.3962 80.3833 72.7629 79.75C73.1296 79.0833 73.5796 78.5667 74.1129 78.2C74.6796 77.8333 75.2629 77.6 75.8629 77.5C76.4962 77.3667 77.0462 77.3 77.5129 77.3C77.7462 77.3 77.9796 77.3167 78.2129 77.35C78.4796 77.35 78.6462 77.3667 78.7129 77.4V79.7C78.7129 80.4 78.8796 80.9167 79.2129 81.25C79.5462 81.5833 79.9629 81.75 80.4629 81.75C81.0629 81.75 81.5962 81.55 82.0629 81.15C82.1629 81.4167 82.2129 81.6667 82.2129 81.9C82.2462 82.1 82.2629 82.3333 82.2629 82.6C82.2629 83 82.1629 83.4667 81.9629 84C81.7962 84.5 81.5129 84.9833 81.1129 85.45C80.7462 85.8833 80.2462 86.2667 79.6129 86.6C79.0129 86.9 78.2796 87.05 77.4129 87.05C76.5129 87.05 75.7296 86.9 75.0629 86.6C74.4296 86.3 73.8962 85.9333 73.4629 85.5C73.0629 85.0333 72.7462 84.5167 72.5129 83.95C72.3129 83.3833 72.2129 82.8167 72.2129 82.25ZM99.6922 87H99.1922C98.3255 87 97.4922 86.9167 96.6922 86.75C95.8922 86.5833 95.1755 86.2833 94.5422 85.85C93.9422 85.4167 93.4422 84.8167 93.0422 84.05C92.6755 83.2833 92.4922 82.2833 92.4922 81.05V56.7C92.4922 55.5 92.6755 54.5167 93.0422 53.75C93.4089 52.9833 93.8922 52.3833 94.4922 51.95C95.0922 51.4833 95.7755 51.1667 96.5422 51C97.3089 50.8 98.0922 50.7 98.8922 50.7H99.6922V87ZM100.742 66.2H105.192C105.192 66.9667 105.126 67.6667 104.992 68.3C104.892 68.9333 104.676 69.5 104.342 70C104.042 70.4667 103.626 70.8333 103.092 71.1C102.559 71.3667 101.876 71.5 101.042 71.5H100.742V66.2ZM110.642 82.2C110.642 82.7667 110.542 83.3333 110.342 83.9C110.142 84.4667 109.826 84.9833 109.392 85.45C108.959 85.8833 108.426 86.25 107.792 86.55C107.159 86.85 106.409 87 105.542 87C104.909 87 104.292 86.9 103.692 86.7C103.092 86.4667 102.559 86.15 102.092 85.75C101.659 85.35 101.292 84.8833 100.992 84.35C100.726 83.8167 100.592 83.2167 100.592 82.55C100.592 82.2833 100.592 82.05 100.592 81.85C100.626 81.6167 100.692 81.3667 100.792 81.1C101.226 81.5 101.759 81.7 102.392 81.7C102.892 81.7 103.309 81.55 103.642 81.25C103.976 80.9167 104.142 80.4333 104.142 79.8V77.35C104.409 77.2833 104.742 77.25 105.142 77.25C105.609 77.25 106.159 77.3167 106.792 77.45C107.426 77.55 108.026 77.7833 108.592 78.15C109.159 78.5167 109.642 79.0333 110.042 79.7C110.442 80.3333 110.642 81.1667 110.642 82.2ZM110.642 55.45C110.642 56.5167 110.442 57.3667 110.042 58C109.642 58.6333 109.159 59.1333 108.592 59.5C108.026 59.8667 107.426 60.1167 106.792 60.25C106.159 60.35 105.609 60.4 105.142 60.4C104.742 60.4 104.409 60.3667 104.142 60.3V58C104.142 57.3333 103.976 56.8333 103.642 56.5C103.342 56.1333 102.926 55.95 102.392 55.95C101.759 55.95 101.226 56.15 100.792 56.55C100.692 56.2833 100.626 56.05 100.592 55.85C100.592 55.6167 100.592 55.3667 100.592 55.1C100.592 54.7 100.676 54.25 100.842 53.75C101.042 53.2167 101.326 52.7333 101.692 52.3C102.092 51.8333 102.592 51.45 103.192 51.15C103.826 50.8167 104.576 50.65 105.442 50.65C106.142 50.65 106.809 50.7667 107.442 51C108.076 51.2333 108.626 51.5667 109.092 52C109.559 52.4333 109.926 52.95 110.192 53.55C110.492 54.1167 110.642 54.75 110.642 55.45ZM121.616 81C121.616 82.1667 121.383 83.1333 120.916 83.9C120.449 84.6667 119.866 85.2833 119.166 85.75C118.466 86.1833 117.683 86.5 116.816 86.7C115.983 86.9 115.183 87 114.416 87V57.95C114.416 55.6167 114.949 53.8167 116.016 52.55C117.083 51.2833 118.616 50.65 120.616 50.65C121.616 50.65 122.433 50.8167 123.066 51.15C123.699 51.4833 124.183 51.9167 124.516 52.45C124.883 52.9833 125.133 53.5667 125.266 54.2C125.399 54.8 125.466 55.3833 125.466 55.95C125.466 56.25 125.433 56.4667 125.366 56.6C124.933 56.2333 124.416 56.05 123.816 56.05C123.316 56.05 122.916 56.15 122.616 56.35C122.349 56.5167 122.133 56.75 121.966 57.05C121.833 57.3167 121.733 57.6333 121.666 58C121.633 58.3667 121.616 58.75 121.616 59.15V81ZM126.016 50.75H126.666C128.566 50.75 130.133 51.35 131.366 52.55C132.599 53.7167 133.216 55.4167 133.216 57.65V62.9C133.216 65.1 132.666 66.7667 131.566 67.9C130.499 69.0333 129.199 69.6333 127.666 69.7H127.316C126.383 69.7 125.599 69.5333 124.966 69.2C124.333 68.8667 123.816 68.45 123.416 67.95C123.049 67.4167 122.783 66.85 122.616 66.25C122.449 65.6167 122.366 65 122.366 64.4C122.599 64.6 122.816 64.75 123.016 64.85C123.216 64.9167 123.616 64.95 124.216 64.95C124.649 64.95 124.983 64.8333 125.216 64.6C125.483 64.3333 125.666 64.0167 125.766 63.65C125.899 63.2833 125.966 62.8833 125.966 62.45C125.999 61.9833 126.016 61.5667 126.016 61.2V50.75ZM132.416 87H131.916C131.049 87 130.183 86.9167 129.316 86.75C128.483 86.5833 127.716 86.2833 127.016 85.85C126.349 85.4167 125.799 84.8167 125.366 84.05C124.933 83.2833 124.716 82.2833 124.716 81.05V70.45H125.516C126.349 70.45 127.183 70.55 128.016 70.75C128.849 70.9167 129.583 71.2333 130.216 71.7C130.883 72.1333 131.416 72.7333 131.816 73.5C132.216 74.2667 132.416 75.25 132.416 76.45V87Z" fill="white"/>
</svg>
